<svg width="25" height="23" viewBox="0 0 25 23" fill="none" xmlns="http://www.w3.org/2000/svg">
<path fill-rule="evenodd" clip-rule="evenodd" d="M14.8997 1.16105C15.8067 0.767353 16.7847 0.56365 17.7734 0.5625C19.6894 0.564568 21.5263 1.3266 22.8811 2.6814C24.2359 4.03619 24.9979 5.87309 25 7.78906C25 14.9844 13.3945 22.0469 12.9141 22.3242C12.7926 22.3972 12.6535 22.4358 12.5117 22.4358L12.5 20.7344C14.5195 19.4414 23.4375 13.418 23.4375 7.78906C23.4377 6.58486 23.0541 5.41194 22.3423 4.44057C21.6306 3.46921 20.6278 2.74995 19.4796 2.38723C18.3313 2.0245 17.0973 2.03718 15.9567 2.42342C14.8161 2.80967 13.8283 3.54937 13.1367 4.53516C13.0646 4.63752 12.9689 4.72105 12.8578 4.77871C12.7466 4.83636 12.6233 4.86646 12.498 4.86646L12.5 2.85156C13.1761 2.13007 13.9927 1.55474 14.8997 1.16105Z" fill="white"/>
<path d="M12.5 2.85156C11.5093 1.79418 10.2235 1.05905 8.80974 0.74161C7.39594 0.424166 5.91936 0.539068 4.57168 1.0714C3.224 1.60373 2.06748 2.52891 1.25224 3.72682C0.437007 4.92473 0.000713398 6.34006 0 7.78906C0 14.9844 11.6055 22.0469 12.1094 22.3242C12.2309 22.3972 12.37 22.4358 12.5117 22.4358L12.5 20.7344C10.4805 19.4453 1.5625 13.4219 1.5625 7.78906C1.5635 6.58592 1.9476 5.41434 2.65912 4.44414C3.37064 3.47393 4.37263 2.7555 5.51986 2.39297C6.66708 2.03044 7.89995 2.04263 9.03978 2.42779C10.1796 2.81295 11.1672 3.55106 11.8594 4.53516C11.9315 4.63752 12.0272 4.72105 12.1383 4.77871C12.2495 4.83636 12.3728 4.86646 12.498 4.86646L12.5 2.85156Z" fill="#FFC700"/>
</svg>
