<svg width="13" height="13" viewBox="0 0 13 13" fill="none" xmlns="http://www.w3.org/2000/svg">
<path d="M11.9877 11.3248L9.18969 8.52687C9.85156 7.71875 10.25 6.68656 10.25 5.5625C10.25 2.97781 8.14719 0.875 5.5625 0.875C2.97781 0.875 0.875 2.97781 0.875 5.5625C0.875 8.14719 2.97781 10.25 5.5625 10.25C6.68656 10.25 7.71875 9.85156 8.52687 9.18969L11.3248 11.9877C11.5081 12.1709 11.8044 12.1709 11.9877 11.9877C12.1709 11.8044 12.1709 11.5081 11.9877 11.3248ZM1.8125 5.5625C1.8125 3.49484 3.49484 1.8125 5.5625 1.8125C7.63016 1.8125 9.3125 3.49484 9.3125 5.5625C9.3125 7.63016 7.63016 9.3125 5.5625 9.3125C3.49484 9.3125 1.8125 7.63016 1.8125 5.5625Z" fill="#FFC700"/>
</svg>
